<svg width="18" height="18" viewBox="0 0 18 18" fill="none" xmlns="http://www.w3.org/2000/svg">
<g opacity="0.5">
<path d="M14.5971 4.18174C14.0816 3.61942 13.1508 3.58476 12.5303 4.20527L6.45529 10.2803C6.29819 10.4374 6.29819 10.6375 6.45529 10.7946C6.6124 10.9517 6.81253 10.9517 6.96963 10.7946L11.9946 5.76961C12.2875 5.47672 12.7624 5.47672 13.0553 5.76961C13.3482 6.06251 13.3482 6.53738 13.0553 6.83027L8.03029 11.8553C7.2874 12.5982 6.13753 12.5982 5.39463 11.8553C4.65174 11.1124 4.65174 9.96251 5.39463 9.21961L11.4696 3.14461C12.6453 1.96897 14.5558 1.93071 15.6917 3.1561C16.8559 4.3324 16.8902 6.23361 15.6696 7.36594L8.55529 14.4803C6.9124 16.1232 4.33753 16.1232 2.69463 14.4803C1.05174 12.8374 1.05174 10.2625 2.69463 8.61961L8.76963 2.54461C9.06252 2.25172 9.5374 2.25172 9.83029 2.54461C10.1232 2.83751 10.1232 3.31238 9.83029 3.60527L3.75529 9.68027C2.69819 10.7374 2.69819 12.3625 3.75529 13.4196C4.8124 14.4767 6.43753 14.4767 7.49463 13.4196L14.6196 6.29461C14.6273 6.28693 14.6352 6.27942 14.6432 6.27208C15.2055 5.75662 15.2401 4.82578 14.6196 4.20527C14.6119 4.19759 14.6044 4.18974 14.5971 4.18174Z" fill="#1C1D22"/>
</g>
</svg>
